<mxfile host="app.diagrams.net" modified="2022-06-03T11:52:03.911Z" agent="5.0 (X11)" etag="9PuLQ2CT5KPWDNTgeuy7" version="18.1.2" type="github">
  <diagram id="Y0sVYbjM5EweYE6kKC4h" name="Page-1">
    <mxGraphModel dx="826" dy="736" grid="1" gridSize="10" guides="1" tooltips="1" connect="1" arrows="1" fold="1" page="1" pageScale="1" pageWidth="827" pageHeight="1169" math="0" shadow="0">
      <root>
        <mxCell id="0" />
        <mxCell id="1" parent="0" />
        <mxCell id="jcFtJvddKOKofgatQIRw-1" value="" style="rounded=0;whiteSpace=wrap;html=1;" vertex="1" parent="1">
          <mxGeometry x="294" y="150" width="240" height="330" as="geometry" />
        </mxCell>
        <mxCell id="jcFtJvddKOKofgatQIRw-11" style="edgeStyle=orthogonalEdgeStyle;rounded=0;orthogonalLoop=1;jettySize=auto;html=1;entryX=0.5;entryY=0;entryDx=0;entryDy=0;" edge="1" parent="1" source="jcFtJvddKOKofgatQIRw-3" target="jcFtJvddKOKofgatQIRw-4">
          <mxGeometry relative="1" as="geometry" />
        </mxCell>
        <mxCell id="jcFtJvddKOKofgatQIRw-3" value="" style="rounded=0;whiteSpace=wrap;html=1;" vertex="1" parent="1">
          <mxGeometry x="339" y="200" width="150" height="100" as="geometry" />
        </mxCell>
        <mxCell id="jcFtJvddKOKofgatQIRw-4" value="" style="rounded=0;whiteSpace=wrap;html=1;" vertex="1" parent="1">
          <mxGeometry x="339" y="330" width="150" height="110" as="geometry" />
        </mxCell>
        <mxCell id="jcFtJvddKOKofgatQIRw-12" style="edgeStyle=orthogonalEdgeStyle;rounded=0;orthogonalLoop=1;jettySize=auto;html=1;exitX=0.5;exitY=1;exitDx=0;exitDy=0;" edge="1" parent="1" source="jcFtJvddKOKofgatQIRw-5" target="jcFtJvddKOKofgatQIRw-1">
          <mxGeometry relative="1" as="geometry" />
        </mxCell>
        <mxCell id="jcFtJvddKOKofgatQIRw-5" value="debut" style="ellipse;whiteSpace=wrap;html=1;aspect=fixed;" vertex="1" parent="1">
          <mxGeometry x="374" y="30" width="80" height="80" as="geometry" />
        </mxCell>
        <mxCell id="jcFtJvddKOKofgatQIRw-6" value="init()" style="text;html=1;strokeColor=none;fillColor=none;align=center;verticalAlign=middle;whiteSpace=wrap;rounded=0;" vertex="1" parent="1">
          <mxGeometry x="384" y="170" width="60" height="30" as="geometry" />
        </mxCell>
        <mxCell id="jcFtJvddKOKofgatQIRw-7" value="displayData()" style="text;html=1;strokeColor=none;fillColor=none;align=center;verticalAlign=middle;whiteSpace=wrap;rounded=0;" vertex="1" parent="1">
          <mxGeometry x="384" y="370" width="60" height="30" as="geometry" />
        </mxCell>
        <mxCell id="jcFtJvddKOKofgatQIRw-8" value="getPhotographer()" style="text;html=1;strokeColor=none;fillColor=none;align=center;verticalAlign=middle;whiteSpace=wrap;rounded=0;" vertex="1" parent="1">
          <mxGeometry x="367" y="235" width="94" height="30" as="geometry" />
        </mxCell>
      </root>
    </mxGraphModel>
  </diagram>
</mxfile>
